<?xml version="1.0" encoding="UTF-8"?>
<svg id="Calque_1" data-name="Calque 1" xmlns="http://www.w3.org/2000/svg" viewBox="0 0 287.58 52.79" fill="white">
  <path d="M243.13,16.47v36.24s16.67,0,16.67,0V16.47s-16.67,0-16.67,0ZM189.69,16.47v36.24s16.67,0,16.67,0V16.47s-16.67,0-16.67,0ZM74.7,12.04c-.02-7.35-2.76-11.97-11.74-11.97H22.22C14.25.08,3.5,3.92.69,12.04h74.01ZM80.12,16.47c-.14.93-.21,1.87-.21,2.83v9.01c-4.37-5.38-12.69-7.96-19.24-7.96H22.22c-2.17,0-5.41-1.36-5.55-3.88H0c.17,10.81,13.09,15.97,22.22,15.97h38.45c2.37,0,5.56,1.29,5.56,4.1s-3.22,4.01-5.56,4.01H15.73v.08s-15.43,0-15.43,0c0,7.47,2.71,12.16,11.74,12.16h48.62c7.65,0,17.9-3.52,21.18-11.01,3.13,6.42,9.72,10.87,17.31,10.87h47.8c10.58,0,19.24-8.66,19.24-19.24v-14.09c0-.96-.07-1.91-.21-2.83h-17.99v20.36c0,2.02-1.65,3.68-3.68,3.68h-42.53c-2.02,0-3.68-1.65-3.68-3.68v-20.36h-17.99ZM287.58,12.04C287.55,4.65,284.82,0,275.84,0h-4.53s-7.97,0-7.97,0h-89.69c-7.1,0-10.29,2.9-11.33,7.76C158.8,3.09,153.21.06,146.95.06h-47.8c-8.02,0-14.93,4.97-17.81,11.98h206.23Z"/>
</svg>
